G75*
%MOIN*%
%OFA0B0*%
%FSLAX25Y25*%
%IPPOS*%
%LPD*%
%AMOC8*
5,1,8,0,0,1.08239X$1,22.5*
%
%ADD10C,0.00000*%
%ADD11R,0.04252X0.04134*%
%ADD12R,0.05118X0.06299*%
%ADD13R,0.04134X0.04252*%
%ADD14R,0.03937X0.04331*%
D10*
X0006236Y0001000D02*
X0006236Y0506906D01*
X0166236Y0506906D01*
X0166236Y0001000D01*
X0006236Y0001000D01*
X0008204Y0035646D02*
X0008204Y0472260D01*
X0164267Y0472260D01*
X0164267Y0035646D01*
X0008204Y0035646D01*
X0014267Y0436000D02*
X0014269Y0436088D01*
X0014275Y0436176D01*
X0014285Y0436264D01*
X0014299Y0436352D01*
X0014316Y0436438D01*
X0014338Y0436524D01*
X0014363Y0436608D01*
X0014393Y0436692D01*
X0014425Y0436774D01*
X0014462Y0436854D01*
X0014502Y0436933D01*
X0014546Y0437010D01*
X0014593Y0437085D01*
X0014643Y0437157D01*
X0014697Y0437228D01*
X0014753Y0437295D01*
X0014813Y0437361D01*
X0014875Y0437423D01*
X0014941Y0437483D01*
X0015008Y0437539D01*
X0015079Y0437593D01*
X0015151Y0437643D01*
X0015226Y0437690D01*
X0015303Y0437734D01*
X0015382Y0437774D01*
X0015462Y0437811D01*
X0015544Y0437843D01*
X0015628Y0437873D01*
X0015712Y0437898D01*
X0015798Y0437920D01*
X0015884Y0437937D01*
X0015972Y0437951D01*
X0016060Y0437961D01*
X0016148Y0437967D01*
X0016236Y0437969D01*
X0016324Y0437967D01*
X0016412Y0437961D01*
X0016500Y0437951D01*
X0016588Y0437937D01*
X0016674Y0437920D01*
X0016760Y0437898D01*
X0016844Y0437873D01*
X0016928Y0437843D01*
X0017010Y0437811D01*
X0017090Y0437774D01*
X0017169Y0437734D01*
X0017246Y0437690D01*
X0017321Y0437643D01*
X0017393Y0437593D01*
X0017464Y0437539D01*
X0017531Y0437483D01*
X0017597Y0437423D01*
X0017659Y0437361D01*
X0017719Y0437295D01*
X0017775Y0437228D01*
X0017829Y0437157D01*
X0017879Y0437085D01*
X0017926Y0437010D01*
X0017970Y0436933D01*
X0018010Y0436854D01*
X0018047Y0436774D01*
X0018079Y0436692D01*
X0018109Y0436608D01*
X0018134Y0436524D01*
X0018156Y0436438D01*
X0018173Y0436352D01*
X0018187Y0436264D01*
X0018197Y0436176D01*
X0018203Y0436088D01*
X0018205Y0436000D01*
X0018203Y0435912D01*
X0018197Y0435824D01*
X0018187Y0435736D01*
X0018173Y0435648D01*
X0018156Y0435562D01*
X0018134Y0435476D01*
X0018109Y0435392D01*
X0018079Y0435308D01*
X0018047Y0435226D01*
X0018010Y0435146D01*
X0017970Y0435067D01*
X0017926Y0434990D01*
X0017879Y0434915D01*
X0017829Y0434843D01*
X0017775Y0434772D01*
X0017719Y0434705D01*
X0017659Y0434639D01*
X0017597Y0434577D01*
X0017531Y0434517D01*
X0017464Y0434461D01*
X0017393Y0434407D01*
X0017321Y0434357D01*
X0017246Y0434310D01*
X0017169Y0434266D01*
X0017090Y0434226D01*
X0017010Y0434189D01*
X0016928Y0434157D01*
X0016844Y0434127D01*
X0016760Y0434102D01*
X0016674Y0434080D01*
X0016588Y0434063D01*
X0016500Y0434049D01*
X0016412Y0434039D01*
X0016324Y0434033D01*
X0016236Y0434031D01*
X0016148Y0434033D01*
X0016060Y0434039D01*
X0015972Y0434049D01*
X0015884Y0434063D01*
X0015798Y0434080D01*
X0015712Y0434102D01*
X0015628Y0434127D01*
X0015544Y0434157D01*
X0015462Y0434189D01*
X0015382Y0434226D01*
X0015303Y0434266D01*
X0015226Y0434310D01*
X0015151Y0434357D01*
X0015079Y0434407D01*
X0015008Y0434461D01*
X0014941Y0434517D01*
X0014875Y0434577D01*
X0014813Y0434639D01*
X0014753Y0434705D01*
X0014697Y0434772D01*
X0014643Y0434843D01*
X0014593Y0434915D01*
X0014546Y0434990D01*
X0014502Y0435067D01*
X0014462Y0435146D01*
X0014425Y0435226D01*
X0014393Y0435308D01*
X0014363Y0435392D01*
X0014338Y0435476D01*
X0014316Y0435562D01*
X0014299Y0435648D01*
X0014285Y0435736D01*
X0014275Y0435824D01*
X0014269Y0435912D01*
X0014267Y0436000D01*
D11*
X0101716Y0139536D03*
X0101716Y0132647D03*
D12*
G36*
X0090191Y0131315D02*
X0093810Y0127696D01*
X0089357Y0123243D01*
X0085738Y0126862D01*
X0090191Y0131315D01*
G37*
G36*
X0084623Y0136882D02*
X0088242Y0133263D01*
X0083789Y0128810D01*
X0080170Y0132429D01*
X0084623Y0136882D01*
G37*
G36*
X0078694Y0133776D02*
X0075075Y0137395D01*
X0079528Y0141848D01*
X0083147Y0138229D01*
X0078694Y0133776D01*
G37*
G36*
X0073126Y0139344D02*
X0069507Y0142963D01*
X0073960Y0147416D01*
X0077579Y0143797D01*
X0073126Y0139344D01*
G37*
D13*
G36*
X0072703Y0149203D02*
X0069780Y0146280D01*
X0066775Y0149285D01*
X0069698Y0152208D01*
X0072703Y0149203D01*
G37*
G36*
X0067831Y0144331D02*
X0064908Y0141408D01*
X0061903Y0144413D01*
X0064826Y0147336D01*
X0067831Y0144331D01*
G37*
G36*
X0078528Y0127962D02*
X0081451Y0125039D01*
X0078446Y0122034D01*
X0075523Y0124957D01*
X0078528Y0127962D01*
G37*
G36*
X0083400Y0123091D02*
X0086323Y0120168D01*
X0083318Y0117163D01*
X0080395Y0120086D01*
X0083400Y0123091D01*
G37*
D14*
X0113827Y0123500D03*
X0113827Y0116937D03*
X0120520Y0116937D03*
X0120520Y0123500D03*
M02*
