%
M48
M72
T01C0.01378
T02C0.02400
T03C0.03200
T04C0.03543
T05C0.03937
T06C0.04000
T07C0.04331
T08C0.07874
T09C0.11024
%
T01
X17173Y71000
X25923Y73500
X38736Y76313
X44673Y62875
X39361Y56625
X52173Y67250
X51236Y44437
X64986Y65688
X74986Y81625
X76861Y64750
X86236Y81313
X84986Y90375
X89986Y90375
X97173Y81313
X100611Y111937
X103111Y115687
X97486Y128500
X96548Y136625
X94986Y146000
X94986Y156313
X103111Y145375
X106548Y136000
X115298Y144438
X118111Y150688
X117486Y136000
X111861Y161625
X113423Y174437
X122486Y196625
X121548Y216625
X124986Y220375
X133423Y215062
X136861Y219437
X147486Y191937
X153736Y165688
X159986Y156313
X142798Y143500
X125898Y164574
X133736Y93812
X121548Y68188
X114986Y56312
X89986Y119125
X88423Y112562
X75611Y132250
X68423Y139125
X63111Y139125
X59048Y141000
X64048Y159438
X63111Y165688
X67486Y167875
X71236Y187875
X66861Y194125
X66548Y199125
X65611Y217562
X60298Y224437
X56548Y198187
X52486Y184437
X50923Y175062
X42173Y181937
X35611Y189437
X38111Y199437
X36548Y214750
X39361Y226937
X43736Y220687
X45298Y215062
X31548Y215375
X26236Y239437
X24361Y247875
X14048Y239437
X17486Y212875
X18736Y192562
X20611Y179437
X12173Y192562
X35611Y171313
X43736Y146313
X41236Y121000
X39986Y105687
X64986Y101625
X66861Y119125
X78736Y153500
X83423Y152563
X75923Y173500
X76548Y191000
X83736Y208187
X91236Y184750
X80298Y231000
X79048Y254750
X85298Y272250
X93423Y243187
X98111Y243187
X105611Y261625
X109986Y278500
X114048Y267875
X120298Y264750
X122173Y256625
X134673Y258500
X140611Y256312
X149673Y252875
X147486Y288500
X139673Y288500
X143423Y318813
X143736Y368187
X134986Y378812
X133736Y384750
X120611Y375062
X106236Y372562
X99986Y366937
X101236Y397562
X121548Y453187
X147798Y438812
X157486Y397562
X107486Y334125
X97798Y269750
X66236Y332250
X50923Y341313
X46548Y364750
X36548Y371625
X45298Y395375
X56236Y399437
X19361Y342250
X44673Y269750
X49361Y274125
X67486Y39125
X148736Y53500
X160298Y61000
T02
X52173Y136625
X52173Y141625
X47173Y141625
X47173Y136625
X42173Y136625
X42173Y141625
X37173Y141625
X37173Y136625
X32173Y136625
X32173Y141625
T03
X31236Y461000
X41236Y461000
X51236Y461000
X61236Y461000
X71236Y461000
X81236Y461000
X91236Y461000
X101236Y461000
X111236Y461000
X121236Y461000
X131236Y461000
X141236Y461000
T04
X55298Y118812
X55298Y108812
X55298Y98812
T05
X66551Y45193
X74425Y45193
X82299Y45193
X90173Y45193
X98047Y45193
X105921Y45193
X116393Y155941
X126236Y155941
X136078Y155941
X96078Y223441
X86236Y223441
X76393Y223441
X76393Y278441
X86236Y278441
X96078Y278441
X116393Y355941
X126236Y355941
X136078Y355941
X56078Y355941
X46236Y355941
X36393Y355941
X36236Y426000
X36236Y446000
X26236Y446630
X26236Y425370
X16236Y426000
X16236Y436000
X16236Y446000
X36393Y155941
X46236Y155941
X56078Y155941
T06
X51236Y404750
X51236Y414750
X61236Y414750
X61236Y404750
X41236Y404750
X41236Y414750
X31236Y414750
X31236Y404750
X21236Y404750
X21236Y414750
X93436Y427100
X93436Y444900
X119036Y444900
X119036Y427100
X133436Y427100
X133436Y444900
X159036Y444900
X159036Y427100
T07
X22486Y42000
X31236Y47220
X31236Y80685
X31236Y96315
X31236Y129780
X22486Y135000
X12236Y219750
X17456Y228500
X31236Y264720
X39986Y259500
X50921Y228500
X31236Y298185
X31236Y308815
X31236Y342280
X39986Y347500
X46551Y436000
X77486Y377500
X86236Y372280
X86236Y338815
X80015Y436000
X85236Y444750
X132486Y347500
X141236Y342280
X141236Y308815
X141236Y298185
X141236Y264720
X141236Y248185
X149986Y259500
X141236Y214720
X149986Y209500
X132486Y135000
X141236Y129780
X141236Y96315
X141236Y80685
X141236Y47220
X149986Y42000
T08
X143559Y183500
X108913Y183500
X103559Y251000
X103559Y306000
X108913Y383500
X143559Y383500
X68913Y306000
X68913Y251000
X63559Y183500
X28913Y183500
X28913Y383500
X63559Y383500
T09
X63401Y88500
X109070Y88500
M30
